<svg width="32" height="32" viewBox="0 0 32 32" fill="none" xmlns="http://www.w3.org/2000/svg">
<rect x="0.5" y="0.5" width="31" height="31" rx="3.05556" fill="white" stroke="black"/>
<path d="M8.33525 23.9289C8.43716 23.9289 8.52378 23.8931 8.59512 23.8215C8.66646 23.7499 8.70213 23.6629 8.70213 23.5606V13.5859C8.78366 12.8083 9.07411 12.1945 9.57348 11.7444C10.0729 11.2942 10.7098 11.0692 11.4843 11.0692C12.32 11.0692 12.9926 11.3454 13.5022 11.8978C14.0118 12.4503 14.2666 13.1971 14.2666 14.1383V23.5606C14.2666 23.6629 14.3022 23.7499 14.3736 23.8215C14.4449 23.8931 14.5315 23.9289 14.6334 23.9289H17.4156C17.5176 23.9289 17.6042 23.8931 17.6755 23.8215C17.7469 23.7499 17.7825 23.6629 17.7825 23.5606V14.1076C17.7825 13.1869 18.0475 12.4503 18.5774 11.8978C19.1074 11.3454 19.7902 11.0692 20.6259 11.0692C21.4616 11.0692 22.1291 11.3454 22.6285 11.8978C23.1278 12.4503 23.3775 13.1971 23.3775 14.1383V23.5606C23.3775 23.6629 23.4132 23.7499 23.4845 23.8215C23.5559 23.8931 23.6425 23.9289 23.7444 23.9289H26.5266C26.6285 23.9289 26.7152 23.8931 26.7865 23.8215C26.8578 23.7499 26.8935 23.6629 26.8935 23.5606V13.4017C26.8935 11.7034 26.4502 10.3786 25.5635 9.42716C24.6769 8.47572 23.4489 8 21.8794 8C20.9011 8 20.0144 8.19438 19.2195 8.58314C18.4246 8.9719 17.8029 9.5755 17.3545 10.3939C17.273 10.4758 17.2016 10.4758 17.1405 10.3939C16.7328 9.61642 16.1519 9.02305 15.3978 8.61383C14.6436 8.20461 13.7672 8 12.7684 8C11.9531 8 11.2143 8.13811 10.5518 8.41434C9.88941 8.69056 9.33399 9.11513 8.88557 9.68804C8.84481 9.74942 8.80404 9.76988 8.76328 9.74942C8.72251 9.72896 8.70213 9.68804 8.70213 9.62665V8.61383C8.70213 8.51153 8.66646 8.42457 8.59512 8.35295C8.52378 8.28134 8.43716 8.24553 8.33525 8.24553H5.52246C5.42055 8.24553 5.33393 8.28134 5.26259 8.35295C5.19125 8.42457 5.15558 8.51153 5.15558 8.61383V23.5606C5.15558 23.6629 5.19125 23.7499 5.26259 23.8215C5.33393 23.8931 5.42055 23.9289 5.52246 23.9289H8.33525Z" fill="black"/>
</svg>
