<svg width="32" height="32" viewBox="0 0 32 32" fill="none" xmlns="http://www.w3.org/2000/svg">
<rect width="32" height="32" fill="white"/>
<path d="M16.2098 25.333C19.382 25.333 21.287 27.2067 21.8329 27.7646C21.6255 27.8176 20.9518 27.7657 20.6337 27.9961C20.8021 28.1818 20.9525 28.3472 21.1024 28.5127C21.0891 28.5717 20.5162 28.2985 19.6718 28.4258C19.8377 28.5465 20.0709 29.1958 20.1141 29.5C19.7189 29.0737 18.2036 27.8897 16.1776 27.8896C14.1511 27.8896 13.0286 28.8007 12.451 29.4297C12.5037 29.1231 12.2708 28.8364 12.3085 28.6172L11.245 28.9678C11.7249 28.4921 11.6808 28.3699 11.8309 28.1006C11.614 27.8705 11.4957 27.7668 10.9999 27.9971C11.723 26.9235 13.0371 25.3331 16.2098 25.333ZM16.4989 2C15.7989 2.71029 14.8426 4.24989 15.4081 5.72461C15.9736 7.19907 17.2177 7.63617 17.4139 7.72656C17.4956 7.51321 17.5436 6.36133 17.3817 5.71777C17.2034 5.00953 16.9965 4.48745 16.8514 4.10156C18.3074 4.49783 19.2438 5.44585 20.0682 6.54395C20.8903 7.63894 21.2592 8.91787 21.6659 10.2158C21.7138 9.30836 21.855 8.39331 21.7841 7.49512C21.7124 6.58814 21.4304 5.69731 21.3602 4.73926C21.9005 5.24489 22.443 5.74917 22.9813 6.25684C24.3014 7.50159 25.6085 8.75806 26.5956 10.2969C27.6908 12.0043 28.1017 13.7951 27.2997 15.7471C27.1898 16.0144 26.7499 16.4288 26.4081 16.7432C27.77 16.6649 29.5008 16.1533 30.538 15.3877C30.991 16.9027 30.7281 18.2922 30.0057 19.623C29.3879 20.7615 28.9529 21.4267 27.8651 22.1328C27.5838 22.3152 25.4213 23.0217 25.7352 23.1367C27.0325 23.6119 29.1144 22.5978 29.6542 22.417C27.4009 24.4508 27.2998 26.5102 22.2528 24.5312C22.2483 24.5295 22.2436 24.5271 22.2391 24.5254V20.1914C22.2391 17.1014 19.7344 14.5969 16.6444 14.5967H15.6229C12.5328 14.5967 10.0273 17.1013 10.0272 20.1914V24.6396C10.0272 24.6903 10.0298 24.7407 10.0311 24.791C9.51967 24.9376 9.13482 25.0647 8.91492 25.1436C7.32932 25.7121 5.99538 24.2604 4.77039 24.0225C5.89937 24.0243 7.02172 23.8314 7.61316 23.3506C7.3068 23.2672 5.41184 23.0691 3.74988 21.9727C2.36807 21.061 1.39549 19.4244 1.11902 18.4678C1.90491 19.3923 2.63595 19.6881 2.69324 19.6475C2.80697 19.4013 2.7189 19.1599 2.50183 18.54C1.93401 16.9185 2.24839 16.0031 3.26648 14.7393C3.9537 13.8863 4.60051 13.0392 4.73914 11.9131C4.8238 11.2257 4.80893 11.1473 4.2196 10.2139C5.60497 10.3192 6.53405 11.2576 7.6405 12.1006C7.81764 11.821 8.53822 11.1367 8.22937 9.3418C7.9205 7.54682 8.35656 6.36353 9.33875 5.29883C11.305 3.16738 14.7888 2.68757 16.4989 2Z" fill="#009BC5"/>
</svg>
