<svg width="96" height="96" viewBox="0 0 96 96" fill="none" xmlns="http://www.w3.org/2000/svg">
<rect x="1.5" y="1.5" width="93" height="93" rx="9.16667" fill="white" stroke="black" stroke-width="3"/>
<path d="M25.0057 71.7868C25.3114 71.7868 25.5713 71.6793 25.7853 71.4645C25.9993 71.2497 26.1063 70.9888 26.1063 70.6819V40.7576C26.3509 38.425 27.2223 36.5835 28.7204 35.2331C30.2185 33.8827 32.1294 33.2075 34.453 33.2075C36.96 33.2075 38.9779 34.0361 40.5066 35.6935C42.0352 37.3508 42.7996 39.5913 42.7996 42.4149V70.6819C42.7996 70.9888 42.9066 71.2497 43.1206 71.4645C43.3346 71.6793 43.5945 71.7868 43.9002 71.7868H52.2469C52.5526 71.7868 52.8125 71.6793 53.0265 71.4645C53.2405 71.2497 53.3475 70.9888 53.3475 70.6819V42.3229C53.3475 39.5606 54.1424 37.3508 55.7323 35.6935C57.3221 34.0361 59.3705 33.2075 61.8776 33.2075C64.3846 33.2075 66.3872 34.0361 67.8853 35.6935C69.3834 37.3508 70.1325 39.5913 70.1325 42.4149V70.6819C70.1325 70.9888 70.2395 71.2497 70.4535 71.4645C70.6675 71.6793 70.9274 71.7868 71.2332 71.7868H79.5798C79.8855 71.7868 80.1454 71.6793 80.3594 71.4645C80.5734 71.2497 80.6804 70.9888 80.6804 70.6819V40.2051C80.6804 35.1103 79.3505 31.1358 76.6906 28.2815C74.0307 25.4272 70.3465 24 65.6382 24C62.7031 24 60.0432 24.5831 57.6584 25.7494C55.2737 26.9157 53.4087 28.7265 52.0634 31.1818C51.8188 31.4274 51.6048 31.4274 51.4214 31.1818C50.1984 28.8493 48.4557 27.0692 46.1933 25.8415C43.9308 24.6138 41.3015 24 38.3053 24C35.8594 24 33.6428 24.4143 31.6555 25.243C29.6682 26.0717 28.0019 27.3454 26.6567 29.0641C26.5344 29.2483 26.4121 29.3096 26.2898 29.2483C26.1675 29.1869 26.1063 29.0641 26.1063 28.88V25.8415C26.1063 25.5346 25.9993 25.2737 25.7853 25.0589C25.5713 24.844 25.3114 24.7366 25.0057 24.7366H16.5673C16.2616 24.7366 16.0017 24.844 15.7877 25.0589C15.5737 25.2737 15.4667 25.5346 15.4667 25.8415V70.6819C15.4667 70.9888 15.5737 71.2497 15.7877 71.4645C16.0017 71.6793 16.2616 71.7868 16.5673 71.7868H25.0057Z" fill="black"/>
</svg>
