<?xml version="1.0" encoding="UTF-8"?>
<svg width="395.1442px" height="94.2523351px" viewBox="0 0 395.1442 94.2523351" version="1.1" xmlns="http://www.w3.org/2000/svg" xmlns:xlink="http://www.w3.org/1999/xlink">
    <title>mogenius logo neg</title>
    <g id="Style-Guide" stroke="none" stroke-width="1" fill="none" fill-rule="evenodd">
        <g id="mg_styleguide_atoms" transform="translate(-1284.4047, -1222.4549)" fill="#FFFFFF">
            <g id="mogenius_logo_quer_neg" transform="translate(1284, 1222.4549)">
                <path d="M132.620596,79.6965885 C132.852846,79.6965885 133.050258,79.6156427 133.212833,79.4537511 C133.375408,79.2918594 133.456696,79.0952767 133.456696,78.8640029 L133.456696,56.3148078 C133.642495,54.5571269 134.304407,53.1694841 135.442431,52.1518794 C136.580456,51.1342747 138.032017,50.6254724 139.797115,50.6254724 C141.701564,50.6254724 143.234413,51.2499116 144.395662,52.4987901 C145.556911,53.7476686 146.137535,55.4359673 146.137535,57.5636863 L146.137535,78.8640029 C146.137535,79.0952767 146.218823,79.2918594 146.381398,79.4537511 C146.543972,79.6156427 146.741385,79.6965885 146.973635,79.6965885 L153.314054,79.6965885 C153.546304,79.6965885 153.743716,79.6156427 153.906291,79.4537511 C154.068866,79.2918594 154.150154,79.0952767 154.150154,78.8640029 L154.150154,57.4943041 C154.150154,55.4128399 154.754003,53.7476686 155.961702,52.4987901 C157.169401,51.2499116 158.725475,50.6254724 160.629923,50.6254724 C162.534372,50.6254724 164.055608,51.2499116 165.193632,52.4987901 C166.331656,53.7476686 166.900668,55.4359673 166.900668,57.5636863 L166.900668,78.8640029 C166.900668,79.0952767 166.981956,79.2918594 167.14453,79.4537511 C167.307105,79.6156427 167.504518,79.6965885 167.736767,79.6965885 L174.077187,79.6965885 C174.309437,79.6965885 174.506849,79.6156427 174.669424,79.4537511 C174.831999,79.2918594 174.913287,79.0952767 174.913287,78.8640029 L174.913287,55.8985149 C174.913287,52.0593699 173.903,49.0643742 171.882427,46.9135279 C169.861853,44.7626816 167.063243,43.6872585 163.486596,43.6872585 C161.256998,43.6872585 159.236424,44.1266787 157.424876,45.0055191 C155.613327,45.8843595 154.196604,47.2488749 153.174704,49.0990653 C152.988905,49.2840843 152.82633,49.2840843 152.68698,49.0990653 C151.757981,47.3413845 150.434157,45.9999964 148.715508,45.0749013 C146.99686,44.1498061 144.999511,43.6872585 142.723463,43.6872585 C140.865465,43.6872585 139.181653,43.9994781 137.67203,44.6239174 C136.162406,45.2483566 134.896644,46.2081429 133.874745,47.5032761 C133.781845,47.6420404 133.688945,47.6882952 133.596046,47.6420404 C133.503146,47.5957856 133.456696,47.5032761 133.456696,47.3645118 L133.456696,45.0749013 C133.456696,44.8436275 133.375408,44.6470447 133.212833,44.4851531 C133.050258,44.3232614 132.852846,44.2423156 132.620596,44.2423156 L126.210502,44.2423156 C125.978252,44.2423156 125.780839,44.3232614 125.618265,44.4851531 C125.45569,44.6470447 125.374402,44.8436275 125.374402,45.0749013 L125.374402,78.8640029 C125.374402,79.0952767 125.45569,79.2918594 125.618265,79.4537511 C125.780839,79.6156427 125.978252,79.6965885 126.210502,79.6965885 L132.620596,79.6965885 Z M194.335957,80.2516457 C197.912604,80.2516457 201.001526,79.3149868 203.602724,77.441669 C206.203922,75.5683513 208.038696,72.9896485 209.107045,69.7055606 C209.896694,67.3465678 210.291519,64.7100466 210.291519,61.7959967 C210.291519,58.7431826 209.873469,56.1066613 209.03737,53.8864329 C207.969021,50.6948545 206.14586,48.1970975 203.567887,46.3931619 C200.989914,44.5892263 197.935829,43.6872585 194.405632,43.6872585 C190.689635,43.6872585 187.507812,44.5892263 184.860165,46.3931619 C182.212517,48.1970975 180.354518,50.7179819 179.286169,53.955815 C178.54297,56.268553 178.17137,58.9050743 178.17137,61.8653789 C178.17137,64.6406644 178.566195,67.2771857 179.355844,69.7749427 C180.424193,73.0590306 182.270579,75.6261697 184.895002,77.4763601 C187.519425,79.3265505 190.66641,80.2516457 194.335957,80.2516457 Z M194.335957,73.3134318 C192.524408,73.3134318 190.979947,72.8277568 189.702573,71.8564069 C188.425199,70.8850569 187.531037,69.5205415 187.020088,67.7628607 C186.555588,66.1439441 186.323338,64.2012442 186.323338,61.934761 C186.323338,59.6682778 186.555588,57.7255779 187.020088,56.1066613 C187.577487,54.3489805 188.483262,52.9960288 189.737411,52.0478062 C190.99156,51.0995836 192.477958,50.6254724 194.196607,50.6254724 C196.008155,50.6254724 197.541004,51.0995836 198.795153,52.0478062 C200.049302,52.9960288 200.931851,54.3489805 201.442801,56.1066613 C201.907301,57.4943041 202.13955,59.437004 202.13955,61.934761 C202.13955,64.2937537 201.907301,66.2364536 201.442801,67.7628607 C200.885401,69.5205415 199.99124,70.8850569 198.760316,71.8564069 C197.529392,72.8277568 196.054605,73.3134318 194.335957,73.3134318 Z M226.160767,93.434252 C231.548962,93.434252 235.903646,92.1969372 239.224819,89.7223076 C242.545991,87.247678 244.206577,83.1194407 244.206577,77.3375958 L244.206577,45.0749013 C244.206577,44.8436275 244.12529,44.6470447 243.962715,44.4851531 C243.80014,44.3232614 243.602728,44.2423156 243.370478,44.2423156 L236.960383,44.2423156 C236.728133,44.2423156 236.530721,44.3232614 236.368146,44.4851531 C236.205571,44.6470447 236.124284,44.8436275 236.124284,45.0749013 L236.124284,46.7400726 C236.124284,46.8788369 236.077834,46.9713464 235.984934,47.0176011 C235.892034,47.0638559 235.799134,47.0176011 235.706234,46.8788369 C233.662436,44.7511179 230.805763,43.6872585 227.136216,43.6872585 C224.070519,43.6872585 221.399646,44.5314078 219.123598,46.2197065 C216.84755,47.9080053 215.245026,50.1629248 214.316027,52.9844651 C213.572827,55.0196745 213.201228,57.9568517 213.201228,61.7959967 C213.201228,65.2188489 213.503152,68.0172618 214.107002,70.1912355 C215.082451,73.3365592 216.824325,75.6724245 219.332622,77.1988315 C221.84092,78.7252386 224.604693,79.4884421 227.623941,79.4884421 C231.107688,79.4884421 233.801786,78.4708374 235.706234,76.435628 C235.799134,76.3431185 235.892034,76.3084274 235.984934,76.3315548 C236.077834,76.3546822 236.124284,76.435628 236.124284,76.5743923 L236.124284,77.1294494 C236.124284,80.3672826 235.299797,82.6684568 233.650823,84.0329722 C232.00185,85.3974876 229.435489,86.0797453 225.951742,86.0797453 C224.883393,86.0797453 223.675694,86.0103632 222.328645,85.8715989 C221.678346,85.8715989 221.353196,86.1260001 221.353196,86.6348024 L221.144171,92.3241378 C221.144171,92.8791949 221.399646,93.1798509 221.910595,93.2261056 C223.304094,93.3648699 224.720818,93.434252 226.160767,93.434252 Z M229.01744,72.8971389 C227.298791,72.8971389 225.824005,72.4230277 224.593081,71.4748051 C223.362157,70.5265825 222.514445,69.3123951 222.049945,67.8322428 C221.585446,66.6758738 221.353196,64.6637918 221.353196,61.7959967 C221.353196,59.0207112 221.631896,56.9855018 222.189295,55.6903685 C222.700245,54.1639614 223.536344,52.9382103 224.697593,52.0131151 C225.858842,51.08802 227.275566,50.6254724 228.947765,50.6254724 C230.712863,50.6254724 232.164424,51.08802 233.302449,52.0131151 C234.440473,52.9382103 235.195284,54.1639614 235.566884,55.6903685 C235.799134,56.4304446 235.950096,57.1820845 236.019771,57.945288 C236.089446,58.7084915 236.124284,59.9689337 236.124284,61.7266146 C236.124284,63.5305502 236.089446,64.8372471 236.019771,65.6467054 C235.950096,66.4561637 235.822359,67.2078036 235.636559,67.9016249 C235.264959,69.3817772 234.52176,70.584401 233.406961,71.5094962 C232.292162,72.4345913 230.828988,72.8971389 229.01744,72.8971389 Z M264.985309,80.3210278 C267.911656,80.3210278 270.570917,79.7659707 272.96309,78.6558565 C275.355263,77.5457422 277.271324,75.9730804 278.711273,73.937871 C278.989972,73.5215782 278.920297,73.1515401 278.502248,72.8277568 L274.182401,69.2892677 C274.043051,69.1505034 273.880477,69.0811213 273.694677,69.0811213 C273.415977,69.0811213 273.183727,69.2198856 272.997927,69.4974141 C271.139929,72.0876807 268.631631,73.3828139 265.473033,73.3828139 C261.153187,73.3365592 258.435864,71.6482604 257.321065,68.3179178 C257.042365,67.7628607 256.833341,66.7221286 256.693991,65.1957215 C256.693991,64.9644477 256.810116,64.8488108 257.042365,64.8488108 L278.850622,64.8488108 C279.408022,64.8488108 279.686722,64.5712823 279.686722,64.0162252 L279.756397,61.8653789 C279.756397,60.4314813 279.663497,59.1363481 279.477697,57.9799791 C278.316448,48.4514987 273.160502,43.6872585 264.00986,43.6872585 C260.386763,43.6872585 257.286228,44.6239174 254.708255,46.4972351 C252.130282,48.3705529 250.376796,50.9261283 249.447797,54.1639614 C248.890397,55.8291328 248.611697,58.0031065 248.611697,60.6858825 C248.611697,65.1263394 249.145872,68.5954463 250.214221,71.0932033 C251.37547,74.0072532 253.221856,76.2737364 255.753379,77.8926529 C258.284902,79.5115695 261.362212,80.3210278 264.985309,80.3210278 Z M257.042365,58.8819469 C256.763666,58.8819469 256.670766,58.76631 256.763666,58.5350362 C256.856566,57.2861577 257.042365,56.268553 257.321065,55.4822221 C257.785565,53.955815 258.586827,52.764755 259.724851,51.9090419 C260.862875,51.0533289 262.291211,50.6254724 264.00986,50.6254724 C265.867858,50.6254724 267.412319,51.08802 268.643243,52.0131151 C269.874167,52.9382103 270.698654,54.2333436 271.116704,55.8985149 C271.302504,56.4998268 271.441854,57.3786672 271.534754,58.5350362 C271.534754,58.76631 271.418629,58.8819469 271.186379,58.8819469 L257.042365,58.8819469 Z M291.268361,79.6965885 C291.500611,79.6965885 291.698023,79.6156427 291.860598,79.4537511 C292.023173,79.2918594 292.10446,79.0952767 292.10446,78.8640029 L292.10446,57.7024505 C292.10446,55.5747316 292.719922,53.8633055 293.950846,52.5681723 C295.18177,51.273039 296.795907,50.6254724 298.793255,50.6254724 C300.790603,50.6254724 302.393127,51.2846027 303.600826,52.6028633 C304.808525,53.921124 305.412375,55.6441137 305.412375,57.7718327 L305.412375,78.8640029 C305.412375,79.0952767 305.493662,79.2918594 305.656237,79.4537511 C305.818812,79.6156427 306.016224,79.6965885 306.248474,79.6965885 L312.658569,79.6965885 C312.890818,79.6965885 313.088231,79.6156427 313.250806,79.4537511 C313.41338,79.2918594 313.494668,79.0952767 313.494668,78.8640029 L313.494668,56.1066613 C313.494668,52.2675163 312.368256,49.2378296 310.115433,47.0176011 C307.86261,44.7973727 304.854975,43.6872585 301.092528,43.6872585 C297.237181,43.6872585 294.357284,44.936137 292.452835,47.433894 C292.406385,47.5726583 292.33671,47.618913 292.24381,47.5726583 C292.15091,47.5264035 292.10446,47.433894 292.10446,47.2951297 L292.10446,45.0749013 C292.10446,44.8436275 292.023173,44.6470447 291.860598,44.4851531 C291.698023,44.3232614 291.500611,44.2423156 291.268361,44.2423156 L284.858266,44.2423156 C284.626017,44.2423156 284.428604,44.3232614 284.266029,44.4851531 C284.103455,44.6470447 284.022167,44.8436275 284.022167,45.0749013 L284.022167,78.8640029 C284.022167,79.0952767 284.103455,79.2918594 284.266029,79.4537511 C284.428604,79.6156427 284.626017,79.6965885 284.858266,79.6965885 L291.268361,79.6965885 Z M326.469806,79.6965885 C326.702056,79.6965885 326.899468,79.6156427 327.062043,79.4537511 C327.224618,79.2918594 327.305905,79.0952767 327.305905,78.8640029 L327.305905,45.0055191 C327.305905,44.7742453 327.224618,44.5776626 327.062043,44.4157709 C326.899468,44.2538793 326.702056,44.1729335 326.469806,44.1729335 L320.059711,44.1729335 C319.827462,44.1729335 319.630049,44.2538793 319.467474,44.4157709 C319.3049,44.5776626 319.223612,44.7742453 319.223612,45.0055191 L319.223612,78.8640029 C319.223612,79.0952767 319.3049,79.2918594 319.467474,79.4537511 C319.630049,79.6156427 319.827462,79.6965885 320.059711,79.6965885 L326.469806,79.6965885 Z M345.506664,80.1822635 C349.315561,80.1822635 352.172234,78.9565124 354.076682,76.5050102 C354.169582,76.3662459 354.262482,76.3199911 354.355382,76.3662459 C354.448282,76.4125006 354.494732,76.5050102 354.494732,76.6437744 L354.494732,78.8640029 C354.494732,79.0952767 354.576019,79.2918594 354.738594,79.4537511 C354.901169,79.6156427 355.098582,79.6965885 355.330831,79.6965885 L361.671251,79.6965885 C361.903501,79.6965885 362.100913,79.6156427 362.263488,79.4537511 C362.426063,79.2918594 362.50735,79.0952767 362.50735,78.8640029 L362.50735,45.0749013 C362.50735,44.8436275 362.426063,44.6470447 362.263488,44.4851531 C362.100913,44.3232614 361.903501,44.2423156 361.671251,44.2423156 L355.330831,44.2423156 C355.098582,44.2423156 354.901169,44.3232614 354.738594,44.4851531 C354.576019,44.6470447 354.494732,44.8436275 354.494732,45.0749013 L354.494732,66.1670715 C354.494732,68.3410452 353.867658,70.0755986 352.613509,71.3707319 C351.35936,72.6658651 349.687161,73.3134318 347.596913,73.3134318 C345.553114,73.3134318 343.962203,72.6658651 342.824179,71.3707319 C341.686155,70.0755986 341.117143,68.3410452 341.117143,66.1670715 L341.117143,45.0749013 C341.117143,44.8436275 341.035856,44.6470447 340.873281,44.4851531 C340.710706,44.3232614 340.513293,44.2423156 340.281044,44.2423156 L333.870949,44.2423156 C333.638699,44.2423156 333.441287,44.3232614 333.278712,44.4851531 C333.116137,44.6470447 333.03485,44.8436275 333.03485,45.0749013 L333.03485,68.4566821 C333.03485,72.2033175 334.230936,75.09424 336.623109,77.1294494 C339.015282,79.1646588 341.976467,80.1822635 345.506664,80.1822635 Z M381.265509,80.1128814 C385.585355,80.1128814 389.045878,79.1762225 391.647075,77.3029048 C394.248273,75.429587 395.548872,72.8508842 395.548872,69.5667963 C395.548872,67.3928226 394.968248,65.623578 393.806999,64.2590626 C392.64575,62.8945473 391.229026,61.8306878 389.556827,61.0674843 C387.884628,60.3042807 385.817605,59.5526409 383.355757,58.8125647 L381.822908,58.3962719 C379.268161,57.7024505 377.445,57.0664476 376.353425,56.4882631 C375.261851,55.9100786 374.716064,55.0659293 374.716064,53.955815 C374.716064,52.7531913 375.285076,51.8165324 376.4231,51.1458384 C377.561124,50.4751444 379.035911,50.1397974 380.847459,50.1397974 C382.891258,50.1397974 384.505394,50.5445265 385.689868,51.3539848 C386.874342,52.1634431 387.466579,53.1694841 387.466579,54.3721079 C387.466579,54.6033817 387.547866,54.7999644 387.710441,54.961856 C387.873016,55.1237477 388.070428,55.2046935 388.302678,55.2046935 L394.225048,55.2046935 C394.457298,55.2046935 394.65471,55.1237477 394.817285,54.961856 C394.97986,54.7999644 395.061148,54.6033817 395.061148,54.3721079 C395.061148,52.3368985 394.480523,50.5213992 393.319274,48.92561 C392.158025,47.3298208 390.509051,46.0809423 388.372353,45.1789745 C386.235655,44.2770067 383.750582,43.8260228 380.917134,43.8260228 C376.736638,43.8260228 373.369015,44.785809 370.814267,46.7053815 C368.25952,48.624954 366.982146,51.2036569 366.982146,54.44149 C366.982146,56.5692089 367.539545,58.3153261 368.654344,59.6798415 C369.769143,61.0443569 371.139417,62.11978 372.765166,62.9061109 C374.390915,63.6924418 376.388263,64.432518 378.757211,65.1263394 L381.404859,65.9589251 C383.541557,66.5602369 385.086018,67.1268577 386.038242,67.6587875 C386.990467,68.1907172 387.466579,68.9886118 387.466579,70.0524712 C387.466579,71.2088402 386.885954,72.1686265 385.724705,72.93183 C384.563456,73.6950335 383.053832,74.0766353 381.195834,74.0766353 C379.244936,74.0766353 377.630799,73.6487788 376.353425,72.7930657 C375.076051,71.9373527 374.437365,70.9313117 374.437365,69.7749427 L374.437365,69.6361784 C374.437365,69.4049046 374.356077,69.2083219 374.193502,69.0464302 C374.030927,68.8845386 373.833515,68.8035927 373.601265,68.8035927 L367.46987,68.8035927 C367.23762,68.8035927 367.040208,68.8845386 366.877633,69.0464302 C366.715058,69.2083219 366.633771,69.4049046 366.633771,69.6361784 L366.633771,70.2606177 C366.633771,72.110808 367.23762,73.7875431 368.445319,75.2908227 C369.653018,76.7941024 371.360055,77.9735988 373.566428,78.8293118 C375.772801,79.6850249 378.339161,80.1128814 381.265509,80.1128814 Z" id="mogenius" fill-rule="nonzero"></path>
                <g id="Logo-/-mogenius_signet_neg" transform="translate(0.4047, 0)">
                    <path d="M52.2805935,8.8817842e-16 C49.9009218,2.43439904 46.6475663,7.71224556 48.5705891,12.7671566 C50.4936119,17.8220676 54.725245,19.3188504 55.3905449,19.6280507 C55.6682879,18.8990833 55.8302748,14.9467865 55.2792256,12.7405041 C54.6728546,10.3127254 53.9697981,8.52528567 53.4767869,7.20266867 C58.4268028,8.56063288 61.6096182,11.8106021 64.4124891,15.5747022 C67.2067472,19.3276083 68.4625146,23.7088464 69.8450782,28.157351 C70.0079963,25.0471319 70.4865188,21.912026 70.245315,18.8335619 C70.001852,15.7250541 69.0444165,12.6731061 68.8059078,9.38952603 C70.6423327,11.1225053 72.4843895,12.8504086 74.3143177,14.5903366 C78.8019005,18.8567408 83.2468209,23.1619594 86.6022491,28.4363386 C90.325266,34.2885991 91.7212835,40.4266748 88.9944107,47.117039 C88.6210042,48.0332034 87.125653,49.4531695 85.9637772,50.5305727 C90.5934535,50.2622919 96.4766718,48.5076442 100.00207,45.883346 C101.542285,51.0759743 100.648874,55.8386747 98.1933492,60.4001493 C96.0931761,64.3023315 94.6140846,66.5818087 90.9161549,69.0021618 C89.9600562,69.627269 82.6094286,72.0483658 83.6766196,72.4425143 C88.0863725,74.0711797 95.1625503,70.5950298 96.9972587,69.9753238 C89.3376561,76.9460856 88.9943999,84.0061048 71.8372717,77.2225397 L71.792,77.205 L71.7929033,62.1913063 C71.7929033,51.8000186 63.4596787,43.3550598 53.1114491,43.1746492 L52.7733007,43.1717037 L49.3019135,43.1717037 C38.7976771,43.1717037 30.2823109,51.6870698 30.2823109,62.1913063 L30.2823109,77.7498818 C30.2823109,77.8712345 30.2834474,77.9923218 30.2857104,78.1131336 C28.551736,78.6153638 27.2476764,79.049313 26.501264,79.3193264 C21.1107505,81.2693357 16.5764306,76.2930358 12.4119756,75.4773325 C16.249664,75.4836469 20.0634323,74.8242675 22.073889,73.1763187 C21.0325099,72.8903688 14.5934245,72.2099594 8.9440093,68.4519176 C4.24677303,65.3272738 0.939797224,59.7205011 -1.33226763e-15,56.4415847 C2.67145191,59.6102631 5.15517775,60.6221411 5.34991123,60.4827248 C5.73656256,59.6391001 5.437368,58.8131139 4.699312,56.6879886 C2.76914436,51.1303507 3.83769376,47.9943759 7.29843461,43.6628592 C9.63482598,40.7391155 11.8332933,37.8361469 12.3045695,33.9759298 C12.5924292,31.619629 12.5428455,31.3515373 10.5394515,28.1522838 C15.249242,28.5131837 18.4077483,31.729651 22.1694443,34.6190251 C22.771578,33.6608505 25.2194007,31.3147342 24.1694602,25.1627353 C23.1195196,19.0107365 24.6026787,14.9561659 27.9413532,11.307069 C34.6254572,4.0014923 46.4675953,2.35669144 52.2805935,8.8817842e-16 Z M66.336075,89.0958205 C66.9086416,89.7326113 67.4180224,90.2994398 67.9278359,90.8667139 C67.8897227,91.0735086 65.9425511,90.1317769 63.0665127,90.5688808 C63.6306731,90.9828383 64.4238183,93.2099344 64.570429,94.2523351 C63.2283739,92.7920713 58.0758568,88.7310635 51.187071,88.7310635 C44.2982852,88.7310635 40.4832082,91.8537899 38.5198377,94.0095692 C38.6987194,92.9586614 37.9064702,91.9788274 38.0346758,91.2274149 L34.4193648,92.4268748 C36.0507679,90.7965993 35.9038031,90.3794688 36.4140076,89.4565665 C35.6758443,88.6672005 35.2740512,88.3101325 33.5878024,89.0997926 C36.0458802,85.4200754 40.51281,79.9717473 51.2986705,79.9717473 C62.0845309,79.9717473 68.5593806,86.3955148 70.4129903,88.3058705 C69.7091806,88.4877886 67.4180224,88.3058705 66.336075,89.0958205 Z" id="Combined-Shape"></path>
                </g>
            </g>
        </g>
    </g>
</svg>