<?xml version="1.0" encoding="UTF-8"?>
<svg width="143px" height="34px" viewBox="0 0 143 34" version="1.1" xmlns="http://www.w3.org/2000/svg" xmlns:xlink="http://www.w3.org/1999/xlink">
    <title>mogenius_logo</title>
    <g id="Symbols" stroke="none" stroke-width="1" fill="none" fill-rule="evenodd">
        <g id="Header-/-Desktop-Start" transform="translate(-124.000000, -15.000000)">
            <g id="mogenius_logo" transform="translate(124.000000, 15.000000)">
                <path d="M18.9557571,28.7553191 C20.6877046,28.7551231 22.519722,29.4760601 23.5403534,30.074917 C24.5609848,30.6737739 25.4000668,31.316467 26.0997886,31.9897617 C25.8341065,32.0538778 24.9485271,32.1748299 24.5607881,32.2681754 C24.776927,32.4926089 24.9692139,32.6923846 25.1616641,32.8923173 C25.1472767,32.9652011 25.4066125,33.166124 25.3922251,33.2390077 C23.9887695,32.712444 23.1786955,32.7125357 22.0930158,32.8665906 C22.3059815,33.0124878 22.5442268,33.4913366 22.5995711,33.8587252 C22.0929568,33.344063 21.4326137,33.0125867 20.980547,32.7127846 C19.3508526,31.6310471 17.6586534,31.5737009 15.9788651,32.5943974 C15.3180613,32.9961091 14.8015529,33.2402071 14.0603974,34 L14.0955838,33.8078253 L14.0955838,33.8078253 L14.1695009,33.4071924 C14.2059755,33.2099825 14.2400589,33.0259671 14.2642571,32.8935514 L12.5125041,33.4421878 C13.1283447,32.8676058 13.3308696,32.5946973 13.5234674,32.2694253 C13.2448171,31.9912175 12.8351408,31.9912638 12.1985964,32.2695753 C13.1264997,30.9726786 13.9180563,30.2121321 15.0950374,29.6519321 C16.177895,29.1365313 17.2238095,28.7555153 18.9557571,28.7553191 Z M19.7235151,5.30264721e-12 C18.8257538,0.895975829 17.5983845,2.83847718 18.32387,4.69892809 C19.0493554,6.559379 20.6457932,7.1102676 20.8967861,7.22406828 C21.0015681,6.95577321 21.0626793,5.50113765 20.8547887,4.68911942 C20.6768631,3.99414421 20.476872,3.44173818 20.3092614,3.00150729 L20.1747951,2.65092908 L20.1747951,2.65092908 C22.0422519,3.15072585 23.24301,4.34687139 24.3004292,5.73224182 C25.3545992,7.11349231 25.828354,8.72599906 26.3499443,10.3632632 C26.4114068,9.21855272 26.5919352,8.06468282 26.5009377,6.93165977 C26.4090878,5.78757915 26.0478827,4.66431522 25.9579019,3.45579958 C26.6507168,4.09361959 27.3456565,4.72957142 28.0360204,5.36994895 C29.7290187,6.94019163 31.4059222,8.52471991 32.6718009,10.4659458 C34.0763572,12.6198599 34.6030233,14.8789676 33.5742765,17.3413435 C33.4334042,17.6785361 32.869264,18.2011518 32.4309316,18.597688 C34.1775361,18.4989482 36.3970551,17.853154 37.7270563,16.8872863 C38.3081227,18.7984237 37.9710725,20.5513267 37.0446949,22.2301688 C36.2523782,23.6663596 35.6943723,24.5053168 34.2992814,25.3961229 C33.938581,25.6261923 32.4360012,26.8587225 32.8767059,26.8690901 C33.8695867,26.8924477 35.9012885,25.9823755 36.5934555,25.754294 C33.7037735,28.3198693 30.2152961,28.2720895 26.8108657,27.9203047 C26.6275942,26.0927757 26.5206535,24.196518 26.2577638,22.4702551 C26.0393186,21.0365829 25.416556,19.7269634 24.3516846,18.6796798 C22.9385034,17.2896665 21.122307,16.8612587 19.2116404,16.9103742 C18.0312158,16.9406448 16.8126882,17.1069234 15.6917112,17.457381 C13.7175817,18.0744239 12.5328219,19.5804873 11.9524992,21.4501485 C11.4686847,23.0090124 11.1325932,24.6255605 10.8935359,26.239306 C10.6599961,27.8149261 10.8194524,27.996426 10.1082363,28.0655637 C9.04313148,28.1691031 6.25367222,28.0795076 4.68257834,27.779289 C6.13039529,27.7816134 7.56918796,27.5389305 8.32765824,26.9324062 C7.93478465,26.8271627 5.50555742,26.5767386 3.374243,25.1935976 C1.60215032,24.0435777 0.354550861,21.980015 2.95852232e-12,20.7732157 C1.00783968,21.9394423 1.94485707,22.3118623 2.01832275,22.2605505 C2.16419181,21.950056 2.05131675,21.6460533 1.77287547,20.8639047 C1.04469447,18.8184261 1.44781803,17.6642365 2.75342622,16.0700301 C3.63485937,14.9939519 4.46425889,13.9255199 4.64205346,12.5047741 C4.75065193,11.6375419 4.73194581,11.5388713 3.9761395,10.3613917 C5.75296813,10.4942208 6.9445553,11.678036 8.36370348,12.7414652 C8.59086598,12.3888109 9.51433807,11.5253274 9.11823393,9.26109539 C8.72212979,6.99686341 9.28167003,5.50458635 10.5412272,4.16154331 C13.06289,1.47273996 17.5304876,0.867375317 19.7235151,5.30264721e-12 Z" id="Combined-Shape-Copy-9" fill="#009BC5"></path>
                <path d="M49.2748259,26.9361702 C49.3576153,26.9361702 49.4279862,26.9078972 49.4859387,26.8513511 C49.5438912,26.794805 49.5728675,26.7261418 49.5728675,26.6453617 L49.5728675,18.7692979 C49.639099,18.1553688 49.8750485,17.6706879 50.2807162,17.3152553 C50.6863839,16.9598227 51.2038171,16.7821064 51.833016,16.7821064 C52.5118884,16.7821064 53.058298,17.0002128 53.4722446,17.4364255 C53.8861912,17.8726383 54.0931645,18.4623333 54.0931645,19.2055106 L54.0931645,26.6453617 C54.0931645,26.7261418 54.1221408,26.794805 54.1800933,26.8513511 C54.2380458,26.9078972 54.3084167,26.9361702 54.3912061,26.9361702 L56.6513546,26.9361702 C56.7341439,26.9361702 56.8045148,26.9078972 56.8624673,26.8513511 C56.9204199,26.794805 56.9493961,26.7261418 56.9493961,26.6453617 L56.9493961,19.1812766 C56.9493961,18.4542553 57.1646484,17.8726383 57.5951528,17.4364255 C58.0256573,17.0002128 58.5803458,16.7821064 59.2592182,16.7821064 C59.9380907,16.7821064 60.4803607,17.0002128 60.8860284,17.4364255 C61.2916961,17.8726383 61.4945299,18.4623333 61.4945299,19.2055106 L61.4945299,26.6453617 C61.4945299,26.7261418 61.5235062,26.794805 61.5814587,26.8513511 C61.6394112,26.9078972 61.7097822,26.9361702 61.7925715,26.9361702 L64.05272,26.9361702 C64.1355093,26.9361702 64.2058802,26.9078972 64.2638328,26.8513511 C64.3217853,26.794805 64.3507615,26.7261418 64.3507615,26.6453617 L64.3507615,18.6238936 C64.3507615,17.2829433 63.990628,16.2368404 63.2703609,15.4855851 C62.5500938,14.7343298 61.5524824,14.3587021 60.2775269,14.3587021 C59.4827494,14.3587021 58.7624823,14.5121844 58.1167256,14.8191489 C57.4709689,15.1261135 56.965954,15.6027163 56.601681,16.2489574 C56.5354495,16.3135816 56.477497,16.3135816 56.4278234,16.2489574 C56.0966661,15.6350284 55.624767,15.1665035 55.012126,14.843383 C54.399485,14.5202624 53.6874968,14.3587021 52.8761615,14.3587021 C52.2138469,14.3587021 51.6136243,14.4677553 51.0754937,14.6858617 C50.5373631,14.9039681 50.0861613,15.2392057 49.7218883,15.6915745 C49.6887725,15.7400426 49.6556568,15.7561986 49.6225411,15.7400426 C49.5894254,15.7238865 49.5728675,15.6915745 49.5728675,15.6431064 L49.5728675,14.843383 C49.5728675,14.7626028 49.5438912,14.6939397 49.4859387,14.6373936 C49.4279862,14.5808475 49.3576153,14.5525745 49.2748259,14.5525745 L46.9898406,14.5525745 C46.9070513,14.5525745 46.8366804,14.5808475 46.7787279,14.6373936 C46.7207753,14.6939397 46.6917991,14.7626028 46.6917991,14.843383 L46.6917991,26.6453617 C46.6917991,26.7261418 46.7207753,26.794805 46.7787279,26.8513511 C46.8366804,26.9078972 46.9070513,26.9361702 46.9898406,26.9361702 L49.2748259,26.9361702 Z M71.2742967,27.1300426 C72.5492522,27.1300426 73.6503502,26.802883 74.5775906,26.1485638 C75.504831,25.4942447 76.1588667,24.5935461 76.5396976,23.4464681 C76.8211813,22.6225106 76.9619231,21.701617 76.9619231,20.6837872 C76.9619231,19.6174894 76.8129023,18.6965957 76.5148608,17.9211064 C76.1340299,16.8063404 75.4841337,15.9339149 74.5651722,15.3038298 C73.6462107,14.6737447 72.5575312,14.3587021 71.2991334,14.3587021 C69.9745043,14.3587021 68.8402906,14.6737447 67.8964923,15.3038298 C66.952694,15.9339149 66.2903794,16.8144184 65.9095486,17.9453404 C65.6446227,18.7531418 65.5121598,19.6740355 65.5121598,20.7080213 C65.5121598,21.677383 65.6529017,22.5982766 65.9343854,23.4707021 C66.3152162,24.6177801 66.9733914,25.5144397 67.9089107,26.1606809 C68.84443,26.806922 69.9662254,27.1300426 71.2742967,27.1300426 Z M71.2742967,24.7066383 C70.6285399,24.7066383 70.0779909,24.537 69.6226497,24.1977234 C69.1673084,23.8584468 68.8485695,23.381844 68.666433,22.7679149 C68.5008544,22.2024539 68.418065,21.5239007 68.418065,20.7322553 C68.418065,19.9406099 68.5008544,19.2620567 68.666433,18.6965957 C68.8651274,18.0826667 69.1880057,17.6101028 69.6350681,17.2789043 C70.0821304,16.9477057 70.6119821,16.7821064 71.2246231,16.7821064 C71.8703798,16.7821064 72.4167893,16.9477057 72.8638516,17.2789043 C73.310914,17.6101028 73.6255134,18.0826667 73.8076499,18.6965957 C73.9732286,19.1812766 74.0560179,19.8598298 74.0560179,20.7322553 C74.0560179,21.5562128 73.9732286,22.234766 73.8076499,22.7679149 C73.6089555,23.381844 73.2902167,23.8584468 72.8514332,24.1977234 C72.4126498,24.537 71.8869376,24.7066383 71.2742967,24.7066383 Z M82.6187816,31.7345106 C84.5394939,31.7345106 86.0917937,31.3023369 87.275681,30.4379894 C88.4595683,29.5736418 89.0515119,28.1317163 89.0515119,26.1122128 L89.0515119,14.843383 C89.0515119,14.7626028 89.0225357,14.6939397 88.9645831,14.6373936 C88.9066306,14.5808475 88.8362597,14.5525745 88.7534704,14.5525745 L86.4684851,14.5525745 C86.3856957,14.5525745 86.3153248,14.5808475 86.2573723,14.6373936 C86.1994198,14.6939397 86.1704435,14.7626028 86.1704435,14.843383 L86.1704435,15.425 C86.1704435,15.4734681 86.1538856,15.5057801 86.1207699,15.5219362 C86.0876542,15.5380922 86.0545385,15.5219362 86.0214227,15.4734681 C85.2928767,14.7302908 84.274568,14.3587021 82.9664967,14.3587021 C81.8736777,14.3587021 80.9216005,14.6535496 80.1102651,15.2432447 C79.2989298,15.8329397 78.7276834,16.6205461 78.3965261,17.6060638 C78.1316003,18.3169291 77.9991374,19.3428369 77.9991374,20.6837872 C77.9991374,21.8793333 78.1067635,22.856773 78.3220157,23.6161064 C78.6697309,24.7147163 79.2906508,25.5305957 80.1847755,26.0637447 C81.0789002,26.5968936 82.0640931,26.8634681 83.1403543,26.8634681 C84.3821941,26.8634681 85.3425503,26.5080355 86.0214227,25.7971702 C86.0545385,25.7648582 86.0876542,25.7527411 86.1207699,25.7608191 C86.1538856,25.7688972 86.1704435,25.7971702 86.1704435,25.8456383 L86.1704435,26.0395106 C86.1704435,27.1704326 85.8765414,27.974195 85.2887372,28.4507979 C84.700933,28.9274007 83.786111,29.1657021 82.5442712,29.1657021 C82.1634403,29.1657021 81.7329358,29.1414681 81.2527578,29.093 C81.0209477,29.093 80.9050426,29.1818582 80.9050426,29.3595745 L80.8305322,31.346766 C80.8305322,31.5406383 80.9216005,31.6456525 81.103737,31.6618085 C81.6004729,31.7102766 82.1054878,31.7345106 82.6187816,31.7345106 Z M83.6370902,24.561234 C83.0244493,24.561234 82.4987371,24.3956348 82.0599537,24.0644362 C81.6211702,23.7332376 81.3189892,23.3091418 81.1534106,22.7921489 C80.9878319,22.3882482 80.9050426,21.685461 80.9050426,20.6837872 C80.9050426,19.7144255 81.0043898,19.0035603 81.2030842,18.5511915 C81.3852207,18.0180426 81.6832622,17.5899078 82.0972088,17.2667872 C82.5111555,16.9436667 83.0161703,16.7821064 83.6122534,16.7821064 C84.2414523,16.7821064 84.7588856,16.9436667 85.1645532,17.2667872 C85.5702209,17.5899078 85.8392862,18.0180426 85.9717491,18.5511915 C86.0545385,18.8096879 86.1083515,19.0722234 86.1331883,19.3387979 C86.1580251,19.6053723 86.1704435,20.0456241 86.1704435,20.6595532 C86.1704435,21.2896383 86.1580251,21.7460461 86.1331883,22.0287766 C86.1083515,22.3115071 86.0628174,22.5740426 85.9965859,22.816383 C85.864123,23.3333759 85.5991972,23.7534326 85.2018084,24.0765532 C84.8044197,24.3996738 84.282847,24.561234 83.6370902,24.561234 Z M96.4584378,27.1542766 C97.5015833,27.1542766 98.449521,26.9604043 99.3022511,26.5726596 C100.154981,26.1849149 100.837993,25.6356099 101.351287,24.9247447 C101.450634,24.7793404 101.425797,24.6500922 101.276776,24.537 L99.736895,23.3010638 C99.6872214,23.2525957 99.6292689,23.2283617 99.5630374,23.2283617 C99.4636902,23.2283617 99.3809009,23.2768298 99.3146695,23.373766 C98.6523549,24.2785035 97.7582302,24.7308723 96.6322954,24.7308723 C95.092414,24.7147163 94.1237789,24.1250213 93.7263902,22.9617872 C93.627043,22.7679149 93.5525326,22.4044043 93.502859,21.8712553 C93.502859,21.7904752 93.5442537,21.7500851 93.627043,21.7500851 L101.40096,21.7500851 C101.599655,21.7500851 101.699002,21.6531489 101.699002,21.4592766 L101.723839,20.7080213 C101.723839,20.2071844 101.690723,19.7548156 101.624492,19.3509149 C101.210545,16.022773 99.372622,14.3587021 96.1107227,14.3587021 C94.8192092,14.3587021 93.7139718,14.6858617 92.7950103,15.3401809 C91.8760488,15.9945 91.2509895,16.8871206 90.9198322,18.0180426 C90.7211378,18.5996596 90.6217906,19.3589929 90.6217906,20.2960426 C90.6217906,21.8470213 90.812206,23.0587234 91.1930369,23.9311489 C91.6069835,24.9489787 92.2651587,25.7406241 93.1675623,26.3060851 C94.0699659,26.8715461 95.1669244,27.1542766 96.4584378,27.1542766 Z M93.627043,19.6659574 C93.5276958,19.6659574 93.4945801,19.6255674 93.5276958,19.5447872 C93.5608115,19.1085745 93.627043,18.7531418 93.7263902,18.4784894 C93.8919688,17.9453404 94.177592,17.5293227 94.5832597,17.2304362 C94.9889274,16.9315496 95.4980817,16.7821064 96.1107227,16.7821064 C96.7730373,16.7821064 97.3235863,16.9436667 97.7623697,17.2667872 C98.2011531,17.5899078 98.4950552,18.0422766 98.6440759,18.6238936 C98.7103074,18.833922 98.759981,19.1408865 98.7930967,19.5447872 C98.7930967,19.6255674 98.7517021,19.6659574 98.6689127,19.6659574 L93.627043,19.6659574 Z M105.827471,26.9361702 C105.91026,26.9361702 105.980631,26.9078972 106.038583,26.8513511 C106.096536,26.794805 106.125512,26.7261418 106.125512,26.6453617 L106.125512,19.2539787 C106.125512,18.5108014 106.344904,17.9130284 106.783687,17.4606596 C107.222471,17.0082908 107.797857,16.7821064 108.509845,16.7821064 C109.221833,16.7821064 109.793079,17.0123298 110.223584,17.4727766 C110.654088,17.9332234 110.86934,18.5350355 110.86934,19.2782128 L110.86934,26.6453617 C110.86934,26.7261418 110.898317,26.794805 110.956269,26.8513511 C111.014222,26.9078972 111.084593,26.9361702 111.167382,26.9361702 L113.452367,26.9361702 C113.535157,26.9361702 113.605528,26.9078972 113.66348,26.8513511 C113.721433,26.794805 113.750409,26.7261418 113.750409,26.6453617 L113.750409,18.6965957 C113.750409,17.3556454 113.348881,16.2974255 112.545824,15.5219362 C111.742768,14.7464468 110.670646,14.3587021 109.329459,14.3587021 C107.955156,14.3587021 106.928569,14.7949149 106.249696,15.6673404 C106.233138,15.7158085 106.208302,15.7319645 106.175186,15.7158085 C106.14207,15.6996525 106.125512,15.6673404 106.125512,15.6188723 L106.125512,14.843383 C106.125512,14.7626028 106.096536,14.6939397 106.038583,14.6373936 C105.980631,14.5808475 105.91026,14.5525745 105.827471,14.5525745 L103.542485,14.5525745 C103.459696,14.5525745 103.389325,14.5808475 103.331373,14.6373936 C103.27342,14.6939397 103.244444,14.7626028 103.244444,14.843383 L103.244444,26.6453617 C103.244444,26.7261418 103.27342,26.794805 103.331373,26.8513511 C103.389325,26.9078972 103.459696,26.9361702 103.542485,26.9361702 L105.827471,26.9361702 Z M118.375613,26.9361702 C118.458403,26.9361702 118.528774,26.9078972 118.586726,26.8513511 C118.644679,26.794805 118.673655,26.7261418 118.673655,26.6453617 L118.673655,14.8191489 C118.673655,14.7383688 118.644679,14.6697057 118.586726,14.6131596 C118.528774,14.5566135 118.458403,14.5283404 118.375613,14.5283404 L116.090628,14.5283404 C116.007839,14.5283404 115.937468,14.5566135 115.879515,14.6131596 C115.821563,14.6697057 115.792587,14.7383688 115.792587,14.8191489 L115.792587,26.6453617 C115.792587,26.7261418 115.821563,26.794805 115.879515,26.8513511 C115.937468,26.9078972 116.007839,26.9361702 116.090628,26.9361702 L118.375613,26.9361702 Z M125.161619,27.1058085 C126.519364,27.1058085 127.537673,26.6776738 128.216545,25.8214043 C128.249661,25.7729362 128.282777,25.7567801 128.315893,25.7729362 C128.349008,25.7890922 128.365566,25.8214043 128.365566,25.8698723 L128.365566,26.6453617 C128.365566,26.7261418 128.394543,26.794805 128.452495,26.8513511 C128.510448,26.9078972 128.580818,26.9361702 128.663608,26.9361702 L130.923756,26.9361702 C131.006546,26.9361702 131.076917,26.9078972 131.134869,26.8513511 C131.192822,26.794805 131.221798,26.7261418 131.221798,26.6453617 L131.221798,14.843383 C131.221798,14.7626028 131.192822,14.6939397 131.134869,14.6373936 C131.076917,14.5808475 131.006546,14.5525745 130.923756,14.5525745 L128.663608,14.5525745 C128.580818,14.5525745 128.510448,14.5808475 128.452495,14.6373936 C128.394543,14.6939397 128.365566,14.7626028 128.365566,14.843383 L128.365566,22.2105319 C128.365566,22.9698652 128.142035,23.5757163 127.694973,24.0280851 C127.24791,24.4804539 126.651827,24.7066383 125.906723,24.7066383 C125.178177,24.7066383 124.61107,24.4804539 124.205403,24.0280851 C123.799735,23.5757163 123.596901,22.9698652 123.596901,22.2105319 L123.596901,14.843383 C123.596901,14.7626028 123.567925,14.6939397 123.509972,14.6373936 C123.45202,14.5808475 123.381649,14.5525745 123.29886,14.5525745 L121.013874,14.5525745 C120.931085,14.5525745 120.860714,14.5808475 120.802762,14.6373936 C120.744809,14.6939397 120.715833,14.7626028 120.715833,14.843383 L120.715833,23.0102553 C120.715833,24.3188936 121.142198,25.3286454 121.994928,26.0395106 C122.847658,26.7503759 123.903222,27.1058085 125.161619,27.1058085 Z M137.908457,27.0815745 C139.448338,27.0815745 140.681899,26.7544149 141.609139,26.1000957 C142.53638,25.4457766 143,24.545078 143,23.398 C143,22.6386667 142.793027,22.0206986 142.37908,21.5440957 C141.965133,21.0674929 141.460119,20.6959043 140.864035,20.4293298 C140.267952,20.1627553 139.531127,19.9002199 138.653561,19.6417234 L138.107151,19.4963191 C137.196468,19.2539787 136.546572,19.0318333 136.157463,18.829883 C135.768353,18.6279326 135.573798,18.3330851 135.573798,17.9453404 C135.573798,17.5252837 135.776632,17.1981241 136.182299,16.9638617 C136.587967,16.7295993 137.113679,16.6124681 137.759436,16.6124681 C138.487982,16.6124681 139.063368,16.7538333 139.485593,17.0365638 C139.907819,17.3192943 140.118932,17.6706879 140.118932,18.0907447 C140.118932,18.1715248 140.147908,18.2401879 140.20586,18.296734 C140.263813,18.3532801 140.334184,18.3815532 140.416973,18.3815532 L142.528101,18.3815532 C142.61089,18.3815532 142.681261,18.3532801 142.739214,18.296734 C142.797166,18.2401879 142.826142,18.1715248 142.826142,18.0907447 C142.826142,17.3798794 142.619169,16.7457553 142.205223,16.1883723 C141.791276,15.6309894 141.203472,15.1947766 140.44181,14.879734 C139.680148,14.5646915 138.794302,14.4071702 137.784273,14.4071702 C136.294065,14.4071702 135.09362,14.7424078 134.182937,15.412883 C133.272255,16.0833582 132.816913,16.9840567 132.816913,18.1149787 C132.816913,18.858156 133.015608,19.4680461 133.412996,19.9446489 C133.810385,20.4212518 134.298842,20.7968794 134.878367,21.0715319 C135.457893,21.3461844 136.169881,21.6046809 137.014332,21.8470213 L137.95813,22.1378298 C138.719792,22.3478582 139.270341,22.5457695 139.609777,22.7315638 C139.949213,22.9173582 140.118932,23.1960496 140.118932,23.5676383 C140.118932,23.971539 139.911958,24.3067766 139.498012,24.5733511 C139.084065,24.8399255 138.545934,24.9732128 137.88362,24.9732128 C137.18819,24.9732128 136.612804,24.8237695 136.157463,24.524883 C135.702121,24.2259965 135.474451,23.8746028 135.474451,23.4707021 L135.474451,23.422234 C135.474451,23.3414539 135.445474,23.2727908 135.387522,23.2162447 C135.329569,23.1596986 135.259198,23.1314255 135.176409,23.1314255 L132.990771,23.1314255 C132.907982,23.1314255 132.837611,23.1596986 132.779658,23.2162447 C132.721706,23.2727908 132.692729,23.3414539 132.692729,23.422234 L132.692729,23.6403404 C132.692729,24.2865816 132.907982,24.8722376 133.338486,25.3973085 C133.768991,25.9223794 134.377492,26.3343582 135.163991,26.6332447 C135.950489,26.9321312 136.865311,27.0815745 137.908457,27.0815745 Z" id="mogenius" fill="#00495D" fill-rule="nonzero"></path>
            </g>
        </g>
    </g>
</svg>