<?xml version="1.0" encoding="UTF-8"?>
<svg width="252px" height="231px" viewBox="0 0 252 231" version="1.1" xmlns="http://www.w3.org/2000/svg" xmlns:xlink="http://www.w3.org/1999/xlink">
    <title>Logo / mogenius_signet</title>
    <g id="Page-1" stroke="none" stroke-width="1" fill="none" fill-rule="evenodd">
        <g id="mg_styleguide_atoms" transform="translate(-620.000000, -391.000000)" fill="#009BC5">
            <g id="Logo-/-mogenius_signet" transform="translate(620.000000, 391.000000)">
                <path d="M125.264056,195.99922 C136.539438,195.997911 148.466299,200.80914 155.110847,204.805657 C161.755395,208.802174 167.218014,213.091236 171.773366,217.584521 C170.043713,218.012404 164.278385,218.819587 161.754114,219.442536 C163.161229,220.94031 164.413061,222.273528 165.665957,223.607795 C165.572292,224.09419 167.260628,225.435065 167.166963,225.92146 C158.03014,222.407396 152.756369,222.408008 145.688341,223.436106 C147.074797,224.409761 148.62583,227.605396 148.986135,230.057192 C145.687958,226.622554 141.38897,224.410421 138.445911,222.409669 C127.83622,215.190611 116.819609,214.807906 105.883796,221.619603 C101.581809,224.300457 98.2192191,225.929463 93.3941239,231 C93.8337359,228.528195 94.4062261,225.383403 94.7212986,223.61603 L83.3169779,227.277397 C86.9921386,223.762424 88.406295,221.939131 89.5822547,219.987646 L89.7938911,219.631013 C89.8288764,219.571203 89.8637556,219.511175 89.898585,219.450877 C88.0845065,217.594235 85.4174184,217.594545 81.2733658,219.451878 C87.3142323,210.796938 92.4674507,205.721373 100.129871,201.982835 C107.179527,198.543268 113.988674,196.000529 125.264056,195.99922 Z M130.74888,2.86179969e-11 C124.797544,6.08736519 116.661207,19.2849479 121.470513,31.9250703 C125.063672,41.3688399 131.879653,45.8461437 135.790952,47.8290935 L136.143566,48.0051225 C137.290258,48.5687507 138.1441,48.9034284 138.526595,49.0811698 C139.221204,47.2583415 139.626316,37.3753764 138.248191,31.858429 C136.731712,25.7876162 134.973431,21.3180109 133.740455,18.0107241 C146.119987,21.4064021 154.079916,29.5331556 161.089639,38.9455253 C167.590275,47.6751796 170.761437,57.7644291 173.955569,68.0839319 L174.43528,69.633443 C174.5154,69.8919356 174.59564,70.1505369 174.676051,70.4092291 C174.768651,68.6416615 174.90202,66.8708795 175.045763,65.0992764 L175.309138,61.910021 C175.715834,56.9491856 176.060873,51.9931704 175.676999,47.094512 C175.068118,39.3214936 172.673658,31.6899064 172.077168,23.4791089 C176.669898,27.8125331 181.276712,32.1332647 185.853195,36.4840649 C197.076226,47.1524784 208.192564,57.91795 216.584183,71.1068673 C225.895107,85.7408131 229.386422,101.089456 222.566771,117.819128 C221.632917,120.110054 217.893183,123.660767 214.98744,126.35488 C226.565831,125.684031 241.279214,121.296429 250.095907,114.73421 C253.947846,127.718702 251.713511,139.628132 245.572474,151.034382 C240.320138,160.792031 236.621069,166.492005 227.372891,172.544247 C224.981778,174.107366 215.021046,182.481321 217.942515,182.551759 C224.524408,182.710453 237.992734,176.527316 242.581169,174.977704 C223.425218,192.408524 200.299801,192.083902 177.731538,189.693835 C177.411822,186.426349 177.127147,183.126526 176.849453,179.823923 L176.517774,175.861358 C175.853933,167.941126 175.165643,160.072988 174.064978,152.665557 C172.616886,142.925019 168.488539,134.02731 161.429415,126.911942 C152.061315,117.468028 140.021593,114.557375 127.355619,114.891072 C119.530483,115.096734 111.452759,116.22645 104.021706,118.6075 C90.9350309,122.799763 83.0811563,133.032134 79.2341472,145.734833 C76.0268986,156.325937 73.7989195,167.308955 72.214188,178.272932 C70.6660326,188.97788 71.7230821,190.211012 67.0083695,190.680742 C59.9476976,191.3842 41.4561319,190.775478 31.0412152,188.735758 C40.6389185,188.75155 50.1767991,187.102734 55.2047639,182.981936 C52.600371,182.2669 36.4968144,180.565489 22.3681476,171.168266 C10.6207925,163.354896 2.3503482,149.334808 -0.000164461501,141.135663 C6.6810561,149.059152 12.8926251,151.589418 13.3796354,151.240799 C14.3466139,149.131263 13.5983555,147.065832 11.7525442,141.751823 C6.92536967,127.854601 9.59771046,120.012901 18.2526996,109.181675 C24.0957959,101.870673 29.5939568,94.6116203 30.7725723,84.9589064 C31.4924809,79.0668291 31.3684765,78.396449 26.3581713,70.3965142 C35.8197902,71.1214382 42.778061,76.4538324 50.0257682,82.2686709 L50.9148791,82.9828227 C52.3997744,84.1761593 53.9014723,85.382577 55.4437109,86.5670136 C56.9495907,84.1710386 63.0713668,78.30443 60.4455583,62.9209716 C57.8197498,47.5375132 61.5289903,37.3988072 69.8787034,28.2740148 C86.595023,10.0059685 116.211112,5.89304995 130.74888,2.86179969e-11 Z"></path>
            </g>
        </g>
    </g>
</svg>