<svg width="500" height="93" viewBox="0 0 500 93" fill="none" xmlns="http://www.w3.org/2000/svg">
<path fill-rule="evenodd" clip-rule="evenodd" d="M13.4102 66.8169C13.84 66.8169 14.2054 66.6667 14.5062 66.3663C14.8071 66.0659 14.9575 65.7011 14.9575 65.272V23.431C15.3014 20.1695 16.5264 17.5947 18.6325 15.7065C20.7386 13.8183 23.4249 12.8742 26.6915 12.8742C30.216 12.8742 33.0527 14.0328 35.2018 16.3502C37.3509 18.6675 38.4254 21.8002 38.4254 25.7483V65.272C38.4254 65.7011 38.5759 66.0659 38.8767 66.3663C39.1776 66.6667 39.5429 66.8169 39.9728 66.8169H51.7067C52.1365 66.8169 52.5018 66.6667 52.8027 66.3663C53.1036 66.0659 53.254 65.7011 53.254 65.272V25.6196C53.254 21.7573 54.3715 18.6675 56.6066 16.3502C58.8416 14.0328 61.7214 12.8742 65.2458 12.8742C68.7703 12.8742 71.5856 14.0328 73.6917 16.3502C75.7978 18.6675 76.8508 21.8002 76.8508 25.7483V65.272C76.8508 65.7011 77.0013 66.0659 77.3021 66.3663C77.603 66.6667 77.9684 66.8169 78.3982 66.8169H90.1321C90.5619 66.8169 90.9273 66.6667 91.2281 66.3663C91.529 66.0659 91.6794 65.7011 91.6794 65.272V22.6585C91.6794 15.5348 89.8097 9.97747 86.0704 5.98648C82.331 1.99549 77.1517 0 70.5326 0C66.4063 0 62.667 0.815363 59.3144 2.44609C55.9618 4.07682 53.34 6.60873 51.4488 10.0418C51.1049 10.3852 50.8041 10.3852 50.5462 10.0418C48.8269 6.78039 46.377 4.29139 43.1964 2.57483C40.0157 0.858277 36.3193 0 32.1071 0C28.6686 0 25.5525 0.579337 22.7587 1.73801C19.9649 2.89668 17.6224 4.67761 15.7312 7.08078C15.5593 7.33827 15.3874 7.4241 15.2154 7.33827C15.0435 7.25244 14.9575 7.08079 14.9575 6.8233V2.57483C14.9575 2.14569 14.8071 1.78092 14.5062 1.48053C14.2054 1.18013 13.84 1.02993 13.4102 1.02993H1.54733C1.11752 1.02993 0.752175 1.18013 0.451305 1.48053C0.150435 1.78092 0 2.14569 0 2.57483V65.272C0 65.7011 0.150435 66.0659 0.451305 66.3663C0.752175 66.6667 1.11752 66.8169 1.54733 66.8169H13.4102ZM127.624 67.8468C134.243 67.8468 139.96 66.1088 144.774 62.6328C149.587 59.1568 152.983 54.3719 154.96 48.2781C156.421 43.9009 157.152 39.0087 157.152 33.6016C157.152 27.9369 156.379 23.0448 154.831 18.925C152.854 13.0029 149.48 8.36822 144.709 5.02094C139.938 1.67366 134.286 2.34751e-05 127.753 2.34751e-05C120.876 2.34751e-05 114.987 1.67366 110.087 5.02094C105.188 8.36822 101.749 13.0458 99.7719 19.0538C98.3965 23.3452 97.7088 28.2373 97.7088 33.7303C97.7088 38.88 98.4395 43.7722 99.9009 48.4068C101.878 54.5006 105.295 59.2641 110.152 62.6972C115.009 66.1303 120.833 67.8468 127.624 67.8468ZM119.049 52.2691C121.413 54.0715 124.271 54.9727 127.624 54.9727C130.805 54.9727 133.534 54.0715 135.812 52.2691C138.09 50.4667 139.745 47.9348 140.776 44.6733C141.636 41.841 142.066 38.2363 142.066 33.8591C142.066 29.2244 141.636 25.6196 140.776 23.0448C139.831 19.7833 138.197 17.2729 135.876 15.5134C133.555 13.7539 130.719 12.8742 127.366 12.8742C124.185 12.8742 121.435 13.7539 119.114 15.5134C116.793 17.2729 115.116 19.7833 114.085 23.0448C113.225 26.0487 112.795 29.6535 112.795 33.8591C112.795 38.0646 113.225 41.6694 114.085 44.6733C115.03 47.9348 116.685 50.4667 119.049 52.2691ZM186.521 92.3077C196.492 92.3077 204.551 90.0118 210.698 85.4201C216.844 80.8283 219.917 73.1681 219.917 62.4397V2.57485C219.917 2.14572 219.767 1.78095 219.466 1.48055C219.165 1.18015 218.8 1.02996 218.37 1.02996H206.507C206.077 1.02996 205.712 1.18015 205.411 1.48055C205.11 1.78095 204.96 2.14572 204.96 2.57485V5.66465C204.96 5.92213 204.874 6.09379 204.702 6.17962C204.53 6.26545 204.358 6.17962 204.186 5.92213C200.404 1.97406 195.117 2.34751e-05 188.326 2.34751e-05C182.652 2.34751e-05 177.71 1.56638 173.497 4.69909C169.285 7.8318 166.319 12.0159 164.6 17.2514C163.225 21.0278 162.537 26.4779 162.537 33.6016C162.537 39.9528 163.096 45.1454 164.213 49.1793C166.019 55.0156 169.242 59.3499 173.884 62.1822C178.526 65.0145 183.641 66.4307 189.229 66.4307C195.676 66.4307 200.662 64.5425 204.186 60.766C204.358 60.5944 204.53 60.53 204.702 60.5729C204.874 60.6158 204.96 60.766 204.96 61.0235V62.0535C204.96 68.0614 203.434 72.3313 200.382 74.8632C197.331 77.3952 192.581 78.6611 186.134 78.6611C184.157 78.6611 181.922 78.5324 179.429 78.2749C178.225 78.2749 177.624 78.7469 177.624 79.691L177.237 90.2479C177.237 91.2778 177.71 91.8357 178.655 91.9215C181.234 92.179 183.856 92.3077 186.521 92.3077ZM183.619 51.561C185.897 53.3205 188.627 54.2002 191.807 54.2002C195.16 54.2002 197.868 53.3419 199.931 51.6254C201.994 49.9088 203.369 47.6773 204.057 44.9308C204.401 43.6434 204.637 42.2487 204.766 40.7467C204.895 39.2447 204.96 36.8201 204.96 33.4728C204.96 30.2114 204.895 27.8726 204.766 26.4564C204.637 25.0403 204.358 23.6456 203.928 22.2723C203.241 19.44 201.844 17.1656 199.738 15.449C197.631 13.7325 194.945 12.8742 191.678 12.8742C188.584 12.8742 185.962 13.7325 183.813 15.449C181.664 17.1656 180.116 19.44 179.171 22.2723C178.139 24.6755 177.624 28.4519 177.624 33.6016C177.624 38.9229 178.053 42.6564 178.913 44.8021C179.773 47.5486 181.341 49.8016 183.619 51.561ZM258.372 67.9756C263.787 67.9756 268.709 66.9456 273.136 64.8858C277.563 62.8259 281.109 59.9078 283.774 56.1313C284.289 55.3589 284.16 54.6723 283.387 54.0715L275.392 47.5057C275.134 47.2482 274.833 47.1194 274.49 47.1194C273.974 47.1194 273.544 47.3769 273.2 47.8919C269.762 52.6982 265.12 55.1014 259.274 55.1014C251.28 55.0156 246.251 51.8829 244.188 45.7033C243.672 44.6733 243.285 42.7422 243.027 39.9099C243.027 39.4808 243.242 39.2662 243.672 39.2662H284.031C285.063 39.2662 285.579 38.7512 285.579 37.7213L285.708 33.7303C285.708 31.0697 285.536 28.6665 285.192 26.5208C283.043 8.84028 273.501 2.34751e-05 256.566 2.34751e-05C249.861 2.34751e-05 244.123 1.73803 239.352 5.21406C234.581 8.69008 231.336 13.4321 229.617 19.44C228.585 22.5298 228.07 26.5637 228.07 31.5417C228.07 39.7812 229.058 46.2182 231.035 50.8529C233.184 56.2601 236.601 60.4656 241.286 63.4696C245.971 66.4736 251.666 67.9756 258.372 67.9756ZM243.156 27.5507C242.984 27.9799 243.156 28.1944 243.672 28.1944H269.848C270.278 28.1944 270.492 27.9799 270.492 27.5507C270.321 25.405 270.063 23.7743 269.719 22.6585C268.945 19.5687 267.419 17.1656 265.141 15.449C262.863 13.7325 260.005 12.8742 256.566 12.8742C253.386 12.8742 250.742 13.6681 248.636 15.2559C246.53 16.8437 245.047 19.0538 244.188 21.8861C243.672 23.3452 243.328 25.2334 243.156 27.5507ZM307.013 66.8169C307.443 66.8169 307.808 66.6667 308.109 66.3663C308.41 66.0659 308.56 65.7011 308.56 65.272V26.0058C308.56 22.0577 309.699 18.8821 311.977 16.4789C314.255 14.0758 317.242 12.8742 320.939 12.8742C324.635 12.8742 327.601 14.0972 329.836 16.5433C332.071 18.9894 333.188 22.1865 333.188 26.1346V65.272C333.188 65.7011 333.339 66.0659 333.64 66.3663C333.941 66.6667 334.306 66.8169 334.736 66.8169H346.599C347.029 66.8169 347.394 66.6667 347.695 66.3663C347.996 66.0659 348.146 65.7011 348.146 65.272V23.0448C348.146 15.9211 346.061 10.2993 341.892 6.17962C337.723 2.05989 332.157 2.34751e-05 325.194 2.34751e-05C318.059 2.34751e-05 312.729 2.31737 309.205 6.95207C309.119 7.20955 308.99 7.29538 308.818 7.20955C308.646 7.12372 308.56 6.95207 308.56 6.69458V2.57485C308.56 2.14572 308.41 1.78095 308.109 1.48055C307.808 1.18015 307.443 1.02996 307.013 1.02996H295.15C294.72 1.02996 294.355 1.18015 294.054 1.48055C293.753 1.78095 293.603 2.14572 293.603 2.57485V65.272C293.603 65.7011 293.753 66.0659 294.054 66.3663C294.355 66.6667 294.72 66.8169 295.15 66.8169H307.013ZM373.254 66.3663C372.954 66.6667 372.588 66.8169 372.158 66.8169H360.296C359.866 66.8169 359.5 66.6667 359.2 66.3663C358.899 66.0659 358.748 65.7011 358.748 65.272V2.4461C358.748 2.01696 358.899 1.65219 359.2 1.3518C359.5 1.0514 359.866 0.901202 360.296 0.901202H372.158C372.588 0.901202 372.954 1.0514 373.254 1.3518C373.555 1.65219 373.706 2.01696 373.706 2.4461V65.272C373.706 65.7011 373.555 66.0659 373.254 66.3663ZM407.389 67.7181C414.438 67.7181 419.725 65.4436 423.249 60.8948C423.421 60.6373 423.593 60.5515 423.765 60.6373C423.937 60.7231 424.023 60.8948 424.023 61.1523V65.272C424.023 65.7011 424.173 66.0659 424.474 66.3663C424.775 66.6667 425.14 66.8169 425.57 66.8169H437.304C437.734 66.8169 438.099 66.6667 438.4 66.3663C438.701 66.0659 438.851 65.7011 438.851 65.272V2.57486C438.851 2.14572 438.701 1.78095 438.4 1.48056C438.099 1.18016 437.734 1.02996 437.304 1.02996H425.57C425.14 1.02996 424.775 1.18016 424.474 1.48056C424.173 1.78095 424.023 2.14572 424.023 2.57486V41.7123C424.023 45.7462 422.862 48.9647 420.541 51.3679C418.22 53.7711 415.126 54.9727 411.257 54.9727C407.475 54.9727 404.531 53.7711 402.425 51.3679C400.318 48.9647 399.265 45.7462 399.265 41.7123V2.57486C399.265 2.14572 399.115 1.78095 398.814 1.48056C398.513 1.18016 398.148 1.02996 397.718 1.02996H385.855C385.425 1.02996 385.06 1.18016 384.759 1.48056C384.458 1.78095 384.308 2.14572 384.308 2.57486V45.9608C384.308 52.9128 386.521 58.277 390.948 62.0535C395.376 65.8299 400.856 67.7181 407.389 67.7181ZM492.779 62.3753C487.965 65.8513 481.561 67.5893 473.566 67.5893C468.151 67.5893 463.401 66.7954 459.318 65.2076C455.235 63.6198 452.076 61.4312 449.841 58.6418C447.606 55.8524 446.488 52.7412 446.488 49.308V48.1494C446.488 47.7202 446.639 47.3555 446.939 47.0551C447.24 46.7547 447.606 46.6045 448.035 46.6045H459.383C459.812 46.6045 460.178 46.7547 460.479 47.0551C460.779 47.3555 460.93 47.7202 460.93 48.1494V48.4069C460.93 50.5525 462.112 52.4193 464.476 54.0071C466.84 55.5949 469.827 56.3888 473.438 56.3888C476.876 56.3888 479.67 55.6808 481.819 54.2646C483.968 52.8484 485.042 51.0675 485.042 48.9218C485.042 46.9478 484.161 45.4673 482.399 44.4802C480.637 43.4932 477.779 42.4418 473.824 41.3261L468.924 39.7812C464.54 38.4938 460.844 37.1205 457.835 35.6614C454.827 34.2024 452.291 32.2069 450.228 29.675C448.164 27.143 447.133 23.903 447.133 19.955C447.133 13.947 449.497 9.16214 454.225 5.60029C458.953 2.03844 465.185 0.257516 472.922 0.257516C478.165 0.257516 482.764 1.09434 486.719 2.76798C490.673 4.44162 493.725 6.75896 495.874 9.72002C498.023 12.6811 499.097 16.0498 499.097 19.8262C499.097 20.2554 498.947 20.6201 498.646 20.9205C498.345 21.2209 497.98 21.3711 497.55 21.3711H486.59C486.16 21.3711 485.795 21.2209 485.494 20.9205C485.193 20.6201 485.042 20.2554 485.042 19.8262C485.042 17.5947 483.946 15.728 481.754 14.226C479.562 12.724 476.575 11.973 472.793 11.973C469.44 11.973 466.711 12.5952 464.605 13.8397C462.499 15.0843 461.446 16.8223 461.446 19.0538C461.446 21.1136 462.456 22.68 464.476 23.7528C466.496 24.8257 469.87 26.0058 474.598 27.2932L477.435 28.0657C481.991 29.4389 485.816 30.8336 488.911 32.2498C492.005 33.6659 494.627 35.64 496.776 38.1719C498.926 40.7038 500 43.9867 500 48.0206C500 54.1144 497.593 58.8993 492.779 62.3753Z" fill="white"/>
</svg>
