<svg width="500" height="93" viewBox="0 0 500 93" fill="none" xmlns="http://www.w3.org/2000/svg">
<path fill-rule="evenodd" clip-rule="evenodd" d="M127.624 67.8468C134.243 67.8468 139.96 66.1088 144.774 62.6328C149.587 59.1567 152.983 54.3718 154.96 48.2781C156.421 43.9009 157.152 39.0087 157.152 33.6015C157.152 27.9369 156.379 23.0447 154.831 18.925C152.854 13.0029 149.48 8.36819 144.709 5.02091C139.938 1.67363 134.286 -7.04252e-06 127.753 -7.04252e-06C120.876 -7.04252e-06 114.987 1.67363 110.087 5.02091C105.188 8.36819 101.749 13.0458 99.7719 19.0537C98.3965 23.3451 97.7088 28.2373 97.7088 33.7303C97.7088 38.8799 98.4395 43.7721 99.9009 48.4068C101.878 54.5006 105.295 59.264 110.152 62.6971C115.009 66.1302 120.833 67.8468 127.624 67.8468ZM13.4102 66.8169C13.84 66.8169 14.2054 66.6667 14.5062 66.3663C14.8071 66.0659 14.9575 65.7011 14.9575 65.272V23.431C15.3014 20.1695 16.5264 17.5947 18.6325 15.7065C20.7386 13.8183 23.4249 12.8742 26.6915 12.8742C30.216 12.8742 33.0527 14.0328 35.2018 16.3502C37.3509 18.6675 38.4254 21.8002 38.4254 25.7483V65.272C38.4254 65.7011 38.5759 66.0659 38.8767 66.3663C39.1776 66.6667 39.5429 66.8169 39.9728 66.8169H51.7067C52.1365 66.8169 52.5018 66.6667 52.8027 66.3663C53.1036 66.0659 53.254 65.7011 53.254 65.272V25.6196C53.254 21.7573 54.3715 18.6675 56.6066 16.3502C58.8416 14.0328 61.7214 12.8742 65.2458 12.8742C68.7703 12.8742 71.5856 14.0328 73.6917 16.3502C75.7978 18.6675 76.8508 21.8002 76.8508 25.7483V65.272C76.8508 65.7011 77.0013 66.0659 77.3021 66.3663C77.603 66.6667 77.9684 66.8169 78.3982 66.8169H90.1321C90.5619 66.8169 90.9273 66.6667 91.2281 66.3663C91.529 66.0659 91.6794 65.7011 91.6794 65.272V22.6585C91.6794 15.5348 89.8097 9.97747 86.0704 5.98648C82.331 1.99549 77.1517 0 70.5326 0C66.4063 0 62.667 0.815363 59.3144 2.44609C55.9618 4.07682 53.34 6.60873 51.4488 10.0418C51.1049 10.3852 50.8041 10.3852 50.5462 10.0418C48.8269 6.78039 46.377 4.29139 43.1964 2.57483C40.0157 0.858277 36.3193 0 32.1071 0C28.6686 0 25.5525 0.579337 22.7587 1.73801C19.9649 2.89668 17.6224 4.67761 15.7312 7.08078C15.5593 7.33827 15.3874 7.4241 15.2154 7.33827C15.0435 7.25244 14.9575 7.08079 14.9575 6.8233V2.57483C14.9575 2.14569 14.8071 1.78092 14.5062 1.48053C14.2054 1.18013 13.84 1.02993 13.4102 1.02993H1.54733C1.11752 1.02993 0.752175 1.18013 0.451305 1.48053C0.150435 1.78092 0 2.14569 0 2.57483V65.272C0 65.7011 0.150435 66.0659 0.451305 66.3663C0.752175 66.6667 1.11752 66.8169 1.54733 66.8169H13.4102ZM119.049 52.2691C121.413 54.0714 124.271 54.9726 127.624 54.9726C130.805 54.9726 133.534 54.0714 135.812 52.2691C138.09 50.4667 139.745 47.9348 140.776 44.6733C141.636 41.841 142.066 38.2362 142.066 33.859C142.066 29.2243 141.636 25.6196 140.776 23.0447C139.831 19.7833 138.197 17.2728 135.876 15.5134C133.555 13.7539 130.719 12.8742 127.366 12.8742C124.185 12.8742 121.435 13.7539 119.114 15.5134C116.793 17.2728 115.116 19.7833 114.085 23.0447C113.225 26.0487 112.795 29.6535 112.795 33.859C112.795 38.0646 113.225 41.6693 114.085 44.6733C115.03 47.9348 116.685 50.4667 119.049 52.2691ZM186.521 92.3077C196.492 92.3077 204.551 90.0118 210.698 85.42C216.844 80.8282 219.917 73.1681 219.917 62.4396V2.57482C219.917 2.14569 219.767 1.78092 219.466 1.48052C219.165 1.18012 218.8 1.02993 218.37 1.02993H206.507C206.077 1.02993 205.712 1.18012 205.411 1.48052C205.11 1.78092 204.96 2.14569 204.96 2.57482V5.66462C204.96 5.9221 204.874 6.09376 204.702 6.17959C204.53 6.26542 204.358 6.17959 204.186 5.9221C200.404 1.97403 195.117 -7.04252e-06 188.326 -7.04252e-06C182.652 -7.04252e-06 177.71 1.56635 173.497 4.69906C169.285 7.83177 166.319 12.0159 164.6 17.2514C163.225 21.0278 162.537 26.4778 162.537 33.6015C162.537 39.9528 163.096 45.1454 164.213 49.1793C166.019 55.0155 169.242 59.3498 173.884 62.1822C178.526 65.0145 183.641 66.4306 189.229 66.4306C195.676 66.4306 200.662 64.5424 204.186 60.766C204.358 60.5943 204.53 60.53 204.702 60.5729C204.874 60.6158 204.96 60.766 204.96 61.0235V62.0534C204.96 68.0614 203.434 72.3313 200.382 74.8632C197.331 77.3951 192.581 78.6611 186.134 78.6611C184.157 78.6611 181.922 78.5323 179.429 78.2749C178.225 78.2749 177.624 78.7469 177.624 79.691L177.237 90.2478C177.237 91.2778 177.71 91.8356 178.655 91.9215C181.234 92.1789 183.856 92.3077 186.521 92.3077ZM183.619 51.561C185.897 53.3205 188.627 54.2002 191.807 54.2002C195.16 54.2002 197.868 53.3419 199.931 51.6254C201.994 49.9088 203.369 47.6773 204.057 44.9308C204.401 43.6434 204.637 42.2487 204.766 40.7467C204.895 39.2447 204.96 36.8201 204.96 33.4728C204.96 30.2114 204.895 27.8725 204.766 26.4564C204.637 25.0402 204.358 23.6455 203.928 22.2723C203.241 19.44 201.844 17.1655 199.738 15.449C197.631 13.7324 194.945 12.8742 191.678 12.8742C188.584 12.8742 185.962 13.7324 183.813 15.449C181.664 17.1655 180.116 19.44 179.171 22.2723C178.139 24.6755 177.624 28.4519 177.624 33.6015C177.624 38.9229 178.053 42.6564 178.913 44.8021C179.773 47.5485 181.341 49.8015 183.619 51.561ZM258.372 67.9755C263.787 67.9755 268.709 66.9456 273.136 64.8857C277.563 62.8259 281.109 59.9077 283.774 56.1313C284.289 55.3589 284.16 54.6722 283.387 54.0714L275.392 47.5056C275.134 47.2481 274.833 47.1194 274.49 47.1194C273.974 47.1194 273.544 47.3769 273.2 47.8918C269.762 52.6982 265.12 55.1014 259.274 55.1014C251.28 55.0155 246.251 51.8828 244.188 45.7032C243.672 44.6733 243.285 42.7422 243.027 39.9099C243.027 39.4807 243.242 39.2662 243.672 39.2662H284.031C285.063 39.2662 285.579 38.7512 285.579 37.7213L285.708 33.7303C285.708 31.0696 285.536 28.6664 285.192 26.5208C283.043 8.84025 273.501 -7.04252e-06 256.566 -7.04252e-06C249.861 -7.04252e-06 244.123 1.738 239.352 5.21403C234.581 8.69005 231.336 13.432 229.617 19.44C228.585 22.5298 228.07 26.5637 228.07 31.5417C228.07 39.7811 229.058 46.2182 231.035 50.8529C233.184 56.26 236.601 60.4656 241.286 63.4696C245.971 66.4735 251.666 67.9755 258.372 67.9755ZM243.156 27.5507C242.984 27.9798 243.156 28.1944 243.672 28.1944H269.848C270.278 28.1944 270.492 27.9798 270.492 27.5507C270.321 25.405 270.063 23.7743 269.719 22.6585C268.945 19.5687 267.419 17.1655 265.141 15.449C262.863 13.7324 260.005 12.8742 256.566 12.8742C253.386 12.8742 250.742 13.6681 248.636 15.2559C246.53 16.8437 245.047 19.0538 244.188 21.8861C243.672 23.3451 243.328 25.2333 243.156 27.5507ZM307.013 66.8169C307.443 66.8169 307.808 66.6667 308.109 66.3663C308.41 66.0659 308.56 65.7011 308.56 65.272V26.0058C308.56 22.0577 309.699 18.8821 311.977 16.4789C314.255 14.0757 317.242 12.8741 320.939 12.8741C324.635 12.8741 327.601 14.0972 329.836 16.5433C332.071 18.9894 333.188 22.1865 333.188 26.1345V65.272C333.188 65.7011 333.339 66.0659 333.64 66.3663C333.941 66.6667 334.306 66.8169 334.736 66.8169H346.599C347.029 66.8169 347.394 66.6667 347.695 66.3663C347.996 66.0659 348.146 65.7011 348.146 65.272V23.0447C348.146 15.921 346.061 10.2993 341.892 6.17959C337.723 2.05986 332.157 -7.04252e-06 325.194 -7.04252e-06C318.059 -7.04252e-06 312.729 2.31734 309.205 6.95204C309.119 7.20952 308.99 7.29535 308.818 7.20952C308.646 7.12369 308.56 6.95204 308.56 6.69455V2.57482C308.56 2.14569 308.41 1.78092 308.109 1.48052C307.808 1.18012 307.443 1.02993 307.013 1.02993H295.15C294.72 1.02993 294.355 1.18012 294.054 1.48052C293.753 1.78092 293.603 2.14569 293.603 2.57482V65.272C293.603 65.7011 293.753 66.0659 294.054 66.3663C294.355 66.6667 294.72 66.8169 295.15 66.8169H307.013ZM373.254 66.3662C372.954 66.6666 372.588 66.8168 372.158 66.8168H360.296C359.866 66.8168 359.5 66.6666 359.2 66.3662C358.899 66.0658 358.748 65.7011 358.748 65.2719V2.44607C358.748 2.01693 358.899 1.65216 359.2 1.35177C359.5 1.05137 359.866 0.901171 360.296 0.901171H372.158C372.588 0.901171 372.954 1.05137 373.254 1.35177C373.555 1.65216 373.706 2.01693 373.706 2.44607V65.2719C373.706 65.7011 373.555 66.0658 373.254 66.3662ZM407.389 67.7181C414.438 67.7181 419.725 65.4436 423.249 60.8948C423.421 60.6373 423.593 60.5514 423.765 60.6373C423.937 60.7231 424.023 60.8947 424.023 61.1522V65.272C424.023 65.7011 424.173 66.0659 424.474 66.3663C424.775 66.6667 425.14 66.8169 425.57 66.8169H437.304C437.734 66.8169 438.099 66.6667 438.4 66.3663C438.701 66.0659 438.851 65.7011 438.851 65.272V2.57483C438.851 2.14569 438.701 1.78092 438.4 1.48053C438.099 1.18013 437.734 1.02993 437.304 1.02993H425.57C425.14 1.02993 424.775 1.18013 424.474 1.48053C424.173 1.78092 424.023 2.14569 424.023 2.57483V41.7123C424.023 45.7462 422.862 48.9647 420.541 51.3679C418.22 53.7711 415.126 54.9726 411.257 54.9726C407.475 54.9726 404.531 53.7711 402.425 51.3679C400.318 48.9647 399.265 45.7462 399.265 41.7123V2.57483C399.265 2.14569 399.115 1.78092 398.814 1.48053C398.513 1.18013 398.148 1.02993 397.718 1.02993H385.855C385.425 1.02993 385.06 1.18013 384.759 1.48053C384.458 1.78092 384.308 2.14569 384.308 2.57483V45.9607C384.308 52.9128 386.521 58.277 390.948 62.0534C395.376 65.8298 400.856 67.7181 407.389 67.7181ZM492.779 62.3753C487.965 65.8513 481.561 67.5893 473.566 67.5893C468.151 67.5893 463.401 66.7954 459.318 65.2076C455.235 63.6198 452.076 61.4312 449.841 58.6418C447.606 55.8524 446.488 52.7411 446.488 49.308V48.1493C446.488 47.7202 446.639 47.3554 446.939 47.055C447.24 46.7546 447.606 46.6044 448.035 46.6044H459.383C459.812 46.6044 460.178 46.7546 460.479 47.055C460.779 47.3554 460.93 47.7202 460.93 48.1493V48.4068C460.93 50.5525 462.112 52.4193 464.476 54.0071C466.84 55.5949 469.827 56.3888 473.438 56.3888C476.876 56.3888 479.67 55.6807 481.819 54.2646C483.968 52.8484 485.042 51.0675 485.042 48.9218C485.042 46.9478 484.161 45.4672 482.399 44.4802C480.637 43.4932 477.779 42.4418 473.824 41.326L468.924 39.7811C464.54 38.4937 460.844 37.1205 457.835 35.6614C454.827 34.2023 452.291 32.2068 450.228 29.6749C448.164 27.143 447.133 23.903 447.133 19.9549C447.133 13.947 449.497 9.16211 454.225 5.60026C458.953 2.03841 465.185 0.257485 472.922 0.257485C478.165 0.257485 482.764 1.09431 486.719 2.76795C490.673 4.44159 493.725 6.75893 495.874 9.71999C498.023 12.681 499.097 16.0498 499.097 19.8262C499.097 20.2553 498.947 20.6201 498.646 20.9205C498.345 21.2209 497.98 21.3711 497.55 21.3711H486.59C486.16 21.3711 485.795 21.2209 485.494 20.9205C485.193 20.6201 485.042 20.2553 485.042 19.8262C485.042 17.5947 483.946 15.7279 481.754 14.2259C479.562 12.724 476.575 11.973 472.793 11.973C469.44 11.973 466.711 12.5952 464.605 13.8397C462.499 15.0842 461.446 16.8222 461.446 19.0538C461.446 21.1136 462.456 22.68 464.476 23.7528C466.496 24.8257 469.87 26.0058 474.598 27.2932L477.435 28.0657C481.991 29.4389 485.816 30.8336 488.911 32.2498C492.005 33.6659 494.627 35.64 496.776 38.1719C498.926 40.7038 500 43.9867 500 48.0206C500 54.1144 497.593 58.8993 492.779 62.3753Z" fill="black"/>
</svg>
